<svg id="icono-download-ppal" xmlns="http://www.w3.org/2000/svg" width="24" height="24" viewBox="0 0 24 24">
  <rect id="Rectángulo_13310" data-name="Rectángulo 13310" width="24" height="24" fill="none"/>
  <path id="Trazado_28047" data-name="Trazado 28047" d="M333.516,205.922a1,1,0,0,0-1,1v4a1,1,0,0,1-1,1h-14a1,1,0,0,1-1-1v-4a1,1,0,0,0-2,0v4a3,3,0,0,0,3,3h14a3,3,0,0,0,3-3v-4a1,1,0,0,0-1-1" transform="translate(-312.516 -191.922)" fill="#187385"/>
  <path id="Trazado_28048" data-name="Trazado 28048" d="M323.809,207.628a1,1,0,0,0,1.415,0l5-5,.024-.025a1,1,0,1,0-1.438-1.389l-3.293,3.293v-9.586a1,1,0,0,0-2,0v9.586l-3.293-3.293a1,1,0,0,0-1.414,1.414Z" transform="translate(-312.516 -191.922)" fill="#187385"/>
</svg>
