<svg id="icono-phone-ppal" xmlns="http://www.w3.org/2000/svg" width="24" height="24" viewBox="0 0 24 24">
  <path id="Trazado_28229" data-name="Trazado 28229" d="M70.026,463.837a2.055,2.055,0,0,1-.286-.013,20.906,20.906,0,0,1-9.08-3.227,20.625,20.625,0,0,1-6.3-6.3,20.9,20.9,0,0,1-3.22-9.1,3.007,3.007,0,0,1,2.715-3.273h0c.094-.008.182-.012.268-.012h3.029a3.007,3.007,0,0,1,2.962,2.579,11.823,11.823,0,0,0,.646,2.6,3,3,0,0,1-.676,3.162l-.721.721a15.019,15.019,0,0,0,4.586,4.586l.717-.717a3.007,3.007,0,0,1,3.17-.678,11.948,11.948,0,0,0,2.587.643,3,3,0,0,1,2.592,3.031v2.989a3,3,0,0,1-2.988,3.009M57.143,443.908h-3.02a1.018,1.018,0,0,0-1,1.041c0,.017,0,.033,0,.049a18.88,18.88,0,0,0,2.914,8.217,18.651,18.651,0,0,0,5.7,5.7,18.9,18.9,0,0,0,8.2,2.919,1.018,1.018,0,0,0,1.071-.96V457.8a1,1,0,0,0-.861-1.016,13.9,13.9,0,0,1-3.019-.752,1,1,0,0,0-1.057.223l-1.267,1.266a1,1,0,0,1-1.2.162,17.007,17.007,0,0,1-6.375-6.375,1,1,0,0,1,.162-1.2l1.27-1.27a1,1,0,0,0,.221-1.05,13.892,13.892,0,0,1-.755-3.032,1,1,0,0,0-.989-.851" transform="translate(-50.127 -440.912)" fill="#187385"/>
  <rect id="Rectángulo_13164" data-name="Rectángulo 13164" width="24" height="24" fill="none"/>
</svg>
