<svg id="icono-tv-ppal" xmlns="http://www.w3.org/2000/svg" width="24" height="24" viewBox="0 0 24 24">
  <rect id="Rectángulo_13309" data-name="Rectángulo 13309" width="24" height="24" fill="none"/>
  <path id="Trazado_28375" data-name="Trazado 28375" d="M840.409,593h-5.586l3.293-3.293a1,1,0,0,0-1.414-1.414l-4.293,4.293-4.293-4.293-.024-.025a1,1,0,0,0-1.39,1.439L829.995,593h-5.586a3,3,0,0,0-3,3v11a3,3,0,0,0,3,3h16a3,3,0,0,0,3-3V596a3,3,0,0,0-3-3m1,14a1,1,0,0,1-1,1h-16a1,1,0,0,1-1-1V596a1,1,0,0,1,1-1h16a1,1,0,0,1,1,1Z" transform="translate(-820.286 -586.994)" fill="#187385"/>
</svg>
