<svg id="icono-archive-ppal" xmlns="http://www.w3.org/2000/svg" width="24" height="24" viewBox="0 0 24 24">
  <rect id="Rectángulo_13312" data-name="Rectángulo 13312" width="24" height="24" transform="translate(0)" fill="none"/>
  <path id="Trazado_27921" data-name="Trazado 27921" d="M515.624,2h-22a1,1,0,0,0-1,1V8a1,1,0,0,0,1,1h1V21a1,1,0,0,0,1,1h18a1,1,0,0,0,1-1V9h1a1,1,0,0,0,1-1V3a1,1,0,0,0-1-1m-3,18h-16V9h16Zm2-13h-20V4h20Z" transform="translate(-492.624)" fill="#187385"/>
  <path id="Trazado_27922" data-name="Trazado 27922" d="M502.624,13h4a1,1,0,0,0,0-2h-4a1,1,0,0,0,0,2" transform="translate(-492.624)" fill="#187385"/>
</svg>
